<svg xmlns="http://www.w3.org/2000/svg" viewBox="0 0 237.82 111.07"><defs><style>.cls-1{fill:#f2f1f1;}</style></defs><g id="Layer_2" data-name="Layer 2"><g id="Layer_1-2" data-name="Layer 1"><path class="cls-1" d="M166.22,0V36.29s-23.68-22.9-55.21.78c0,0-17.38,15.18-13.13,37.71s22.27,28.18,33.34,27.67,25.87-5.92,34.88-25.36v24.2s17.11-.13,17.11,0V0Zm-.38,71.69H148.72s-5.92,24.84-22.91,26.13c0,0-24.71,0-10.17-39,0,0,11.33-24.71,32.31-23.68,0,0,17-1,18.27,15.7Z" transform="translate(-6.3)"/><path class="cls-1" d="M6.3,64.19,54.92,40.55v9.21l-38.62,18V68L54.92,86V95.2L6.3,71.56Z" transform="translate(-6.3)"/><path class="cls-1" d="M62.09,99.31l25-74.47h8.87L70.86,99.31Z" transform="translate(-6.3)"/><path class="cls-1" d="M244.12,71.81,195.5,95.2V86L234.71,68v-.21L195.5,49.71V40.55L244.12,64Z" transform="translate(-6.3)"/><path class="cls-1" d="M123.16,101.5l13.81-.27a4.55,4.55,0,0,1,2.84,4.58,5.19,5.19,0,0,1-3.28,4.37,11.56,11.56,0,0,1-9.27-.11s4-1.26,3.87-3.49C131.13,106.58,130.58,104.12,123.16,101.5Z" transform="translate(-6.3)"/><path class="cls-1" d="M123.74,100.92l13.81-.27a4.53,4.53,0,0,1,2.83,4.58,5.15,5.15,0,0,1-3.27,4.37,11.56,11.56,0,0,1-9.27-.11s4-1.26,3.87-3.49C131.71,106,131.16,103.54,123.74,100.92Z" transform="translate(-6.3)"/></g></g></svg>